<svg xmlns="http://www.w3.org/2000/svg" xmlns:xlink="http://www.w3.org/1999/xlink" width="600" zoomAndPan="magnify" viewBox="0 0 450 149.999998" height="200" preserveAspectRatio="xMidYMid meet" version="1.0"><defs><g/></defs><g fill="#000000" fill-opacity="1"><g transform="translate(46.627801, 70.743044)"><g><path d="M 34.3125 -36.78125 C 34.3125 -34.289062 33.65625 -32.078125 32.34375 -30.140625 C 31.039062 -28.203125 29.269531 -26.6875 27.03125 -25.59375 C 29.632812 -24.476562 31.691406 -22.847656 33.203125 -20.703125 C 34.722656 -18.566406 35.484375 -16.144531 35.484375 -13.4375 C 35.484375 -9.125 34.03125 -5.691406 31.125 -3.140625 C 28.21875 -0.585938 24.394531 0.6875 19.65625 0.6875 C 14.863281 0.6875 11.023438 -0.59375 8.140625 -3.15625 C 5.265625 -5.71875 3.828125 -9.144531 3.828125 -13.4375 C 3.828125 -16.125 4.5625 -18.546875 6.03125 -20.703125 C 7.5 -22.867188 9.535156 -24.515625 12.140625 -25.640625 C 9.921875 -26.734375 8.171875 -28.25 6.890625 -30.1875 C 5.617188 -32.125 4.984375 -34.320312 4.984375 -36.78125 C 4.984375 -40.96875 6.328125 -44.289062 9.015625 -46.75 C 11.710938 -49.21875 15.257812 -50.453125 19.65625 -50.453125 C 24.03125 -50.453125 27.566406 -49.21875 30.265625 -46.75 C 32.960938 -44.289062 34.3125 -40.96875 34.3125 -36.78125 Z M 29.15625 -13.5625 C 29.15625 -16.34375 28.269531 -18.609375 26.5 -20.359375 C 24.738281 -22.117188 22.429688 -23 19.578125 -23 C 16.734375 -23 14.453125 -22.132812 12.734375 -20.40625 C 11.015625 -18.675781 10.15625 -16.394531 10.15625 -13.5625 C 10.15625 -10.738281 10.988281 -8.519531 12.65625 -6.90625 C 14.332031 -5.289062 16.664062 -4.484375 19.65625 -4.484375 C 22.613281 -4.484375 24.9375 -5.296875 26.625 -6.921875 C 28.3125 -8.546875 29.15625 -10.757812 29.15625 -13.5625 Z M 19.65625 -45.25 C 17.164062 -45.25 15.148438 -44.476562 13.609375 -42.9375 C 12.078125 -41.40625 11.3125 -39.316406 11.3125 -36.671875 C 11.3125 -34.140625 12.066406 -32.09375 13.578125 -30.53125 C 15.097656 -28.976562 17.125 -28.203125 19.65625 -28.203125 C 22.1875 -28.203125 24.207031 -28.976562 25.71875 -30.53125 C 27.238281 -32.09375 28 -34.140625 28 -36.671875 C 28 -39.203125 27.210938 -41.265625 25.640625 -42.859375 C 24.066406 -44.453125 22.070312 -45.25 19.65625 -45.25 Z M 19.65625 -45.25 "/></g></g></g><g fill="#000000" fill-opacity="1"><g transform="translate(85.932246, 70.743044)"><g><path d="M 28.953125 -49.796875 L 28.953125 -44.4375 L 27.78125 -44.4375 C 22.863281 -44.34375 18.945312 -42.882812 16.03125 -40.0625 C 13.113281 -37.238281 11.425781 -33.257812 10.96875 -28.125 C 13.59375 -31.132812 17.171875 -32.640625 21.703125 -32.640625 C 26.035156 -32.640625 29.492188 -31.113281 32.078125 -28.0625 C 34.660156 -25.007812 35.953125 -21.066406 35.953125 -16.234375 C 35.953125 -11.109375 34.554688 -7.003906 31.765625 -3.921875 C 28.972656 -0.847656 25.234375 0.6875 20.546875 0.6875 C 15.785156 0.6875 11.921875 -1.140625 8.953125 -4.796875 C 5.992188 -8.453125 4.515625 -13.164062 4.515625 -18.9375 L 4.515625 -21.359375 C 4.515625 -30.523438 6.46875 -37.523438 10.375 -42.359375 C 14.28125 -47.203125 20.097656 -49.679688 27.828125 -49.796875 Z M 20.640625 -27.375 C 18.472656 -27.375 16.476562 -26.722656 14.65625 -25.421875 C 12.832031 -24.128906 11.570312 -22.503906 10.875 -20.546875 L 10.875 -18.21875 C 10.875 -14.113281 11.796875 -10.804688 13.640625 -8.296875 C 15.484375 -5.796875 17.785156 -4.546875 20.546875 -4.546875 C 23.390625 -4.546875 25.625 -5.59375 27.25 -7.6875 C 28.882812 -9.78125 29.703125 -12.523438 29.703125 -15.921875 C 29.703125 -19.347656 28.875 -22.113281 27.21875 -24.21875 C 25.570312 -26.320312 23.378906 -27.375 20.640625 -27.375 Z M 20.640625 -27.375 "/></g></g></g><g fill="#000000" fill-opacity="1"><g transform="translate(125.236691, 70.743044)"><g/></g></g><g fill="#000000" fill-opacity="1"><g transform="translate(142.564831, 70.743044)"><g><path d="M 33.21875 -21.984375 L 12.34375 -21.984375 L 12.34375 0 L 5.78125 0 L 5.78125 -49.765625 L 36.609375 -49.765625 L 36.609375 -44.359375 L 12.34375 -44.359375 L 12.34375 -27.34375 L 33.21875 -27.34375 Z M 33.21875 -21.984375 "/></g></g></g><g fill="#000000" fill-opacity="1"><g transform="translate(181.254076, 70.743044)"><g><path d="M 20.4375 -22.1875 C 14.8125 -23.800781 10.71875 -25.785156 8.15625 -28.140625 C 5.59375 -30.503906 4.3125 -33.414062 4.3125 -36.875 C 4.3125 -40.800781 5.875 -44.046875 9 -46.609375 C 12.132812 -49.171875 16.207031 -50.453125 21.21875 -50.453125 C 24.644531 -50.453125 27.695312 -49.789062 30.375 -48.46875 C 33.050781 -47.144531 35.125 -45.320312 36.59375 -43 C 38.0625 -40.675781 38.796875 -38.132812 38.796875 -35.375 L 32.203125 -35.375 C 32.203125 -38.382812 31.242188 -40.75 29.328125 -42.46875 C 27.410156 -44.1875 24.707031 -45.046875 21.21875 -45.046875 C 17.988281 -45.046875 15.46875 -44.332031 13.65625 -42.90625 C 11.84375 -41.488281 10.9375 -39.515625 10.9375 -36.984375 C 10.9375 -34.953125 11.796875 -33.234375 13.515625 -31.828125 C 15.234375 -30.429688 18.160156 -29.148438 22.296875 -27.984375 C 26.429688 -26.828125 29.664062 -25.546875 32 -24.140625 C 34.34375 -22.742188 36.078125 -21.109375 37.203125 -19.234375 C 38.328125 -17.367188 38.890625 -15.171875 38.890625 -12.640625 C 38.890625 -8.609375 37.316406 -5.378906 34.171875 -2.953125 C 31.035156 -0.523438 26.832031 0.6875 21.5625 0.6875 C 18.144531 0.6875 14.953125 0.03125 11.984375 -1.28125 C 9.023438 -2.59375 6.742188 -4.382812 5.140625 -6.65625 C 3.535156 -8.9375 2.734375 -11.523438 2.734375 -14.421875 L 9.328125 -14.421875 C 9.328125 -11.410156 10.4375 -9.035156 12.65625 -7.296875 C 14.882812 -5.554688 17.851562 -4.6875 21.5625 -4.6875 C 25.03125 -4.6875 27.6875 -5.390625 29.53125 -6.796875 C 31.375 -8.210938 32.296875 -10.140625 32.296875 -12.578125 C 32.296875 -15.015625 31.441406 -16.898438 29.734375 -18.234375 C 28.023438 -19.566406 24.925781 -20.882812 20.4375 -22.1875 Z M 20.4375 -22.1875 "/></g></g></g><g fill="#000000" fill-opacity="1"><g transform="translate(222.780082, 70.743044)"><g><path d="M 20.4375 -22.1875 C 14.8125 -23.800781 10.71875 -25.785156 8.15625 -28.140625 C 5.59375 -30.503906 4.3125 -33.414062 4.3125 -36.875 C 4.3125 -40.800781 5.875 -44.046875 9 -46.609375 C 12.132812 -49.171875 16.207031 -50.453125 21.21875 -50.453125 C 24.644531 -50.453125 27.695312 -49.789062 30.375 -48.46875 C 33.050781 -47.144531 35.125 -45.320312 36.59375 -43 C 38.0625 -40.675781 38.796875 -38.132812 38.796875 -35.375 L 32.203125 -35.375 C 32.203125 -38.382812 31.242188 -40.75 29.328125 -42.46875 C 27.410156 -44.1875 24.707031 -45.046875 21.21875 -45.046875 C 17.988281 -45.046875 15.46875 -44.332031 13.65625 -42.90625 C 11.84375 -41.488281 10.9375 -39.515625 10.9375 -36.984375 C 10.9375 -34.953125 11.796875 -33.234375 13.515625 -31.828125 C 15.234375 -30.429688 18.160156 -29.148438 22.296875 -27.984375 C 26.429688 -26.828125 29.664062 -25.546875 32 -24.140625 C 34.34375 -22.742188 36.078125 -21.109375 37.203125 -19.234375 C 38.328125 -17.367188 38.890625 -15.171875 38.890625 -12.640625 C 38.890625 -8.609375 37.316406 -5.378906 34.171875 -2.953125 C 31.035156 -0.523438 26.832031 0.6875 21.5625 0.6875 C 18.144531 0.6875 14.953125 0.03125 11.984375 -1.28125 C 9.023438 -2.59375 6.742188 -4.382812 5.140625 -6.65625 C 3.535156 -8.9375 2.734375 -11.523438 2.734375 -14.421875 L 9.328125 -14.421875 C 9.328125 -11.410156 10.4375 -9.035156 12.65625 -7.296875 C 14.882812 -5.554688 17.851562 -4.6875 21.5625 -4.6875 C 25.03125 -4.6875 27.6875 -5.390625 29.53125 -6.796875 C 31.375 -8.210938 32.296875 -10.140625 32.296875 -12.578125 C 32.296875 -15.015625 31.441406 -16.898438 29.734375 -18.234375 C 28.023438 -19.566406 24.925781 -20.882812 20.4375 -22.1875 Z M 20.4375 -22.1875 "/></g></g></g><g fill="#012d6b" fill-opacity="1"><g transform="translate(47.624693, 131.717402)"><g><path d="M 14.703125 -8.234375 L 36.46875 -8.234375 L 36.46875 0 L 4.4375 0 L 4.4375 -49.765625 L 14.703125 -49.765625 Z M 14.703125 -8.234375 "/></g></g></g><g fill="#012d6b" fill-opacity="1"><g transform="translate(85.527855, 131.717402)"><g><path d="M 15.34375 0 L 5.09375 0 L 5.09375 -49.765625 L 15.34375 -49.765625 Z M 15.34375 0 "/></g></g></g><g fill="#012d6b" fill-opacity="1"><g transform="translate(105.931995, 131.717402)"><g><path d="M 4.4375 0 L 4.4375 -49.765625 L 21.875 -49.765625 C 27.914062 -49.765625 32.492188 -48.609375 35.609375 -46.296875 C 38.734375 -43.984375 40.296875 -40.59375 40.296875 -36.125 C 40.296875 -33.6875 39.664062 -31.539062 38.40625 -29.6875 C 37.15625 -27.832031 35.414062 -26.46875 33.1875 -25.59375 C 35.738281 -24.957031 37.75 -23.671875 39.21875 -21.734375 C 40.6875 -19.796875 41.421875 -17.425781 41.421875 -14.625 C 41.421875 -9.84375 39.894531 -6.21875 36.84375 -3.75 C 33.789062 -1.289062 29.441406 -0.0390625 23.796875 0 Z M 14.703125 -21.671875 L 14.703125 -8.234375 L 23.484375 -8.234375 C 25.898438 -8.234375 27.785156 -8.804688 29.140625 -9.953125 C 30.492188 -11.109375 31.171875 -12.703125 31.171875 -14.734375 C 31.171875 -19.285156 28.8125 -21.597656 24.09375 -21.671875 Z M 14.703125 -28.921875 L 22.28125 -28.921875 C 27.457031 -29.003906 30.046875 -31.066406 30.046875 -35.109375 C 30.046875 -37.359375 29.390625 -38.976562 28.078125 -39.96875 C 26.765625 -40.957031 24.695312 -41.453125 21.875 -41.453125 L 14.703125 -41.453125 Z M 14.703125 -28.921875 "/></g></g></g><g fill="#012d6b" fill-opacity="1"><g transform="translate(150.602357, 131.717402)"><g><path d="M 22.859375 -18.21875 L 14.703125 -18.21875 L 14.703125 0 L 4.4375 0 L 4.4375 -49.765625 L 22.9375 -49.765625 C 28.8125 -49.765625 33.34375 -48.453125 36.53125 -45.828125 C 39.726562 -43.210938 41.328125 -39.515625 41.328125 -34.734375 C 41.328125 -31.335938 40.59375 -28.503906 39.125 -26.234375 C 37.65625 -23.960938 35.425781 -22.15625 32.4375 -20.8125 L 43.203125 -0.484375 L 43.203125 0 L 32.203125 0 Z M 14.703125 -26.53125 L 22.96875 -26.53125 C 25.539062 -26.53125 27.53125 -27.179688 28.9375 -28.484375 C 30.351562 -29.796875 31.0625 -31.601562 31.0625 -33.90625 C 31.0625 -36.25 30.394531 -38.09375 29.0625 -39.4375 C 27.738281 -40.78125 25.695312 -41.453125 22.9375 -41.453125 L 14.703125 -41.453125 Z M 14.703125 -26.53125 "/></g></g></g><g fill="#012d6b" fill-opacity="1"><g transform="translate(195.272719, 131.717402)"><g><path d="M 32.546875 -10.25 L 14.5625 -10.25 L 11.140625 0 L 0.234375 0 L 18.765625 -49.765625 L 28.265625 -49.765625 L 46.890625 0 L 35.984375 0 Z M 17.328125 -18.5625 L 29.765625 -18.5625 L 23.515625 -37.1875 Z M 17.328125 -18.5625 "/></g></g></g><g fill="#012d6b" fill-opacity="1"><g transform="translate(242.369708, 131.717402)"><g><path d="M 22.859375 -18.21875 L 14.703125 -18.21875 L 14.703125 0 L 4.4375 0 L 4.4375 -49.765625 L 22.9375 -49.765625 C 28.8125 -49.765625 33.34375 -48.453125 36.53125 -45.828125 C 39.726562 -43.210938 41.328125 -39.515625 41.328125 -34.734375 C 41.328125 -31.335938 40.59375 -28.503906 39.125 -26.234375 C 37.65625 -23.960938 35.425781 -22.15625 32.4375 -20.8125 L 43.203125 -0.484375 L 43.203125 0 L 32.203125 0 Z M 14.703125 -26.53125 L 22.96875 -26.53125 C 25.539062 -26.53125 27.53125 -27.179688 28.9375 -28.484375 C 30.351562 -29.796875 31.0625 -31.601562 31.0625 -33.90625 C 31.0625 -36.25 30.394531 -38.09375 29.0625 -39.4375 C 27.738281 -40.78125 25.695312 -41.453125 22.9375 -41.453125 L 14.703125 -41.453125 Z M 14.703125 -26.53125 "/></g></g></g><g fill="#012d6b" fill-opacity="1"><g transform="translate(287.04007, 131.717402)"><g><path d="M 15.34375 0 L 5.09375 0 L 5.09375 -49.765625 L 15.34375 -49.765625 Z M 15.34375 0 "/></g></g></g><g fill="#012d6b" fill-opacity="1"><g transform="translate(307.444198, 131.717402)"><g><path d="M 34.390625 -21.5625 L 14.703125 -21.5625 L 14.703125 -8.234375 L 37.796875 -8.234375 L 37.796875 0 L 4.4375 0 L 4.4375 -49.765625 L 37.734375 -49.765625 L 37.734375 -41.453125 L 14.703125 -41.453125 L 14.703125 -29.59375 L 34.390625 -29.59375 Z M 34.390625 -21.5625 "/></g></g></g><g fill="#012d6b" fill-opacity="1"><g transform="translate(346.816998, 131.717402)"><g><path d="M 30.25 -13.0625 C 30.25 -15 29.5625 -16.484375 28.1875 -17.515625 C 26.820312 -18.554688 24.363281 -19.648438 20.8125 -20.796875 C 17.257812 -21.953125 14.445312 -23.085938 12.375 -24.203125 C 6.71875 -27.253906 3.890625 -31.363281 3.890625 -36.53125 C 3.890625 -39.226562 4.644531 -41.628906 6.15625 -43.734375 C 7.675781 -45.835938 9.851562 -47.484375 12.6875 -48.671875 C 15.53125 -49.859375 18.71875 -50.453125 22.25 -50.453125 C 25.800781 -50.453125 28.96875 -49.804688 31.75 -48.515625 C 34.53125 -47.234375 36.6875 -45.414062 38.21875 -43.0625 C 39.757812 -40.71875 40.53125 -38.050781 40.53125 -35.0625 L 30.28125 -35.0625 C 30.28125 -37.34375 29.5625 -39.113281 28.125 -40.375 C 26.695312 -41.644531 24.679688 -42.28125 22.078125 -42.28125 C 19.578125 -42.28125 17.628906 -41.75 16.234375 -40.6875 C 14.847656 -39.632812 14.15625 -38.238281 14.15625 -36.5 C 14.15625 -34.882812 14.96875 -33.53125 16.59375 -32.4375 C 18.21875 -31.34375 20.617188 -30.316406 23.796875 -29.359375 C 29.628906 -27.609375 33.875 -25.429688 36.53125 -22.828125 C 39.195312 -20.234375 40.53125 -17 40.53125 -13.125 C 40.53125 -8.820312 38.898438 -5.441406 35.640625 -2.984375 C 32.390625 -0.535156 28.003906 0.6875 22.484375 0.6875 C 18.660156 0.6875 15.175781 -0.0078125 12.03125 -1.40625 C 8.882812 -2.8125 6.484375 -4.734375 4.828125 -7.171875 C 3.179688 -9.609375 2.359375 -12.4375 2.359375 -15.65625 L 12.640625 -15.65625 C 12.640625 -10.164062 15.921875 -7.421875 22.484375 -7.421875 C 24.921875 -7.421875 26.820312 -7.914062 28.1875 -8.90625 C 29.5625 -9.894531 30.25 -11.28125 30.25 -13.0625 Z M 30.25 -13.0625 "/></g></g></g></svg>